<svg version="1.1" xmlns="http://www.w3.org/2000/svg" xmlns:xlink="http://www.w3.org/1999/xlink" width="160.65761" height="90.09473" viewBox="0,0,160.65761,90.09473"><g transform="translate(-159.67119,-134.95265)"><g data-paper-data="{&quot;isPaintingLayer&quot;:true}" fill-rule="nonzero" stroke-linecap="butt" stroke-linejoin="miter" stroke-miterlimit="10" stroke-dasharray="" stroke-dashoffset="0" style="mix-blend-mode: normal"><path d="M161.17119,209.93887c0,-17.84428 0,-48.09819 0,-58.46636c0,-3.73899 2.37588,-7.85367 5.82954,-10.82945c2.89658,-2.49577 6.55129,-4.19041 10.19833,-4.19041c19.23471,0 100.09529,0 130.2389,0c7.10377,0 11.39084,5.91938 11.39084,11.39091c0,9.95767 0,43.58364 0,62.49852c0,7.87891 -3.959,13.2053 -10.58442,13.2053c-30.35856,0 -116.70116,0 -134.67426,0c-6.39701,0 -12.39893,-5.53369 -12.39893,-13.60851z" fill="#000000" stroke="#ffffff" stroke-width="3"/><text transform="translate(185.13645,192.54024) scale(1.04502,1.04502)" font-size="40" xml:space="preserve" fill="#ffffff" fill-rule="nonzero" stroke="none" stroke-width="1" stroke-linecap="butt" stroke-linejoin="miter" stroke-miterlimit="10" stroke-dasharray="" stroke-dashoffset="0" font-family="Pixel" font-weight="normal" text-anchor="start" style="mix-blend-mode: normal"><tspan x="0" dy="0">Load</tspan></text></g></g></svg>